HIERARCHY
ROOT mixamorig:Hips
{
	OFFSET 0.000000 201.639420 0.000000
	CHANNELS 6 Xposition Yposition Zposition Xrotation Yrotation Zrotation
	JOINT mixamorig:Spine
	{
		OFFSET 0.006200 19.524994 -2.481800
		CHANNELS 3 Xrotation Yrotation Zrotation
		JOINT mixamorig:Spine1
		{
			OFFSET -0.000900 22.835007 -2.825400
			CHANNELS 3 Xrotation Yrotation Zrotation
			JOINT mixamorig:Spine2
			{
				OFFSET -0.020600 26.552490 -3.193300
				CHANNELS 3 Xrotation Yrotation Zrotation
				JOINT mixamorig:Neck
				{
					OFFSET -0.060000 30.701813 1.352200
					CHANNELS 3 Xrotation Yrotation Zrotation
					JOINT mixamorig:Head
					{
						OFFSET -0.087200 22.547607 3.670900
						CHANNELS 3 Xrotation Yrotation Zrotation
						JOINT mixamorig:HeadTop_End
						{
							OFFSET -0.830600 40.355194 7.893500
							CHANNELS 3 Xrotation Yrotation Zrotation
							End Site
							{
								OFFSET 0.000000 30.592346 0.000000
							}
						}
						JOINT mixamorig:RightEye
						{
							OFFSET -6.302100 18.118591 16.197100
							CHANNELS 3 Xrotation Yrotation Zrotation
							End Site
							{
								OFFSET 0.000000 30.592346 0.000000
							}
						}
						JOINT mixamorig:LeftEye
						{
							OFFSET 6.741500 18.382690 16.401899
							CHANNELS 3 Xrotation Yrotation Zrotation
							End Site
							{
								OFFSET 0.000000 30.592346 0.000000
							}
						}
					}
				}
				JOINT mixamorig:LeftShoulder
				{
					OFFSET 11.924900 18.230499 1.425400
					CHANNELS 3 Xrotation Yrotation Zrotation
					JOINT mixamorig:LeftArm
					{
						OFFSET 25.435989 -0.697632 -5.229300
						CHANNELS 3 Xrotation Yrotation Zrotation
						JOINT mixamorig:LeftForeArm
						{
							OFFSET 54.684776 0.000000 0.000000
							CHANNELS 3 Xrotation Yrotation Zrotation
							JOINT mixamorig:LeftHand
							{
								OFFSET 55.098175 0.000000 0.000000
								CHANNELS 3 Xrotation Yrotation Zrotation
								JOINT mixamorig:LeftHandMiddle1
								{
									OFFSET 23.369751 0.000000 0.000000
									CHANNELS 3 Xrotation Yrotation Zrotation
									JOINT mixamorig:LeftHandMiddle2
									{
										OFFSET 6.378677 0.000000 0.000000
										CHANNELS 3 Xrotation Yrotation Zrotation
										JOINT mixamorig:LeftHandMiddle3
										{
											OFFSET 6.148331 0.000000 0.000000
											CHANNELS 3 Xrotation Yrotation Zrotation
											JOINT mixamorig:LeftHandMiddle4
											{
												OFFSET 6.582504 0.000000 0.000000
												CHANNELS 3 Xrotation Yrotation Zrotation
												End Site
												{
													OFFSET -1.168900 6.395691 1.028606
												}
											}
										}
									}
								}
								JOINT mixamorig:LeftHandThumb1
								{
									OFFSET 7.235672 -3.848206 5.434273
									CHANNELS 3 Xrotation Yrotation Zrotation
									JOINT mixamorig:LeftHandThumb2
									{
										OFFSET 6.568451 -3.792297 3.792300
										CHANNELS 3 Xrotation Yrotation Zrotation
										JOINT mixamorig:LeftHandThumb3
										{
											OFFSET 6.063080 -3.500519 3.500518
											CHANNELS 3 Xrotation Yrotation Zrotation
											JOINT mixamorig:LeftHandThumb4
											{
												OFFSET 4.793182 -2.767334 2.767349
												CHANNELS 3 Xrotation Yrotation Zrotation
												End Site
												{
													OFFSET 0.101639 6.054260 1.275483
												}
											}
										}
									}
								}
								JOINT mixamorig:LeftHandIndex1
								{
									OFFSET 23.101074 -0.309540 4.992809
									CHANNELS 3 Xrotation Yrotation Zrotation
									JOINT mixamorig:LeftHandIndex2
									{
										OFFSET 6.226883 0.000000 0.000000
										CHANNELS 3 Xrotation Yrotation Zrotation
										JOINT mixamorig:LeftHandIndex3
										{
											OFFSET 6.094330 0.000000 0.000000
											CHANNELS 3 Xrotation Yrotation Zrotation
											JOINT mixamorig:LeftHandIndex4
											{
												OFFSET 5.482605 0.000000 0.000000
												CHANNELS 3 Xrotation Yrotation Zrotation
												End Site
												{
													OFFSET -1.427902 5.233032 0.797164
												}
											}
										}
									}
								}
								JOINT mixamorig:LeftHandRing1
								{
									OFFSET 22.299240 0.021149 -3.964172
									CHANNELS 3 Xrotation Yrotation Zrotation
									JOINT mixamorig:LeftHandRing2
									{
										OFFSET 6.321869 0.000000 0.000000
										CHANNELS 3 Xrotation Yrotation Zrotation
										JOINT mixamorig:LeftHandRing3
										{
											OFFSET 5.899796 0.000000 0.000000
											CHANNELS 3 Xrotation Yrotation Zrotation
											JOINT mixamorig:LeftHandRing4
											{
												OFFSET 6.517899 0.000000 0.000000
												CHANNELS 3 Xrotation Yrotation Zrotation
												End Site
												{
													OFFSET -1.637299 6.232208 0.980890
												}
											}
										}
									}
								}
								JOINT mixamorig:LeftHandPinky1
								{
									OFFSET 20.463791 -0.302338 -8.562233
									CHANNELS 3 Xrotation Yrotation Zrotation
									JOINT mixamorig:LeftHandPinky2
									{
										OFFSET 6.908646 0.000000 0.000000
										CHANNELS 3 Xrotation Yrotation Zrotation
										JOINT mixamorig:LeftHandPinky3
										{
											OFFSET 4.622849 0.000000 0.000000
											CHANNELS 3 Xrotation Yrotation Zrotation
											JOINT mixamorig:LeftHandPinky4
											{
												OFFSET 5.216080 0.000000 0.000000
												CHANNELS 3 Xrotation Yrotation Zrotation
												End Site
												{
													OFFSET -0.606308 5.116241 0.814926
												}
											}
										}
									}
								}
							}
						}
					}
				}
				JOINT mixamorig:RightShoulder
				{
					OFFSET -12.001300 18.284088 1.348900
					CHANNELS 3 Xrotation Yrotation Zrotation
					JOINT mixamorig:RightArm
					{
						OFFSET -25.308500 -0.751312 -5.164599
						CHANNELS 3 Xrotation Yrotation Zrotation
						JOINT mixamorig:RightForeArm
						{
							OFFSET -54.684429 0.000000 0.000000
							CHANNELS 3 Xrotation Yrotation Zrotation
							JOINT mixamorig:RightHand
							{
								OFFSET -55.150291 0.000000 0.000000
								CHANNELS 3 Xrotation Yrotation Zrotation
								JOINT mixamorig:RightHandMiddle1
								{
									OFFSET -23.317566 0.000000 0.000000
									CHANNELS 3 Xrotation Yrotation Zrotation
									JOINT mixamorig:RightHandMiddle2
									{
										OFFSET -6.378403 0.000000 0.000000
										CHANNELS 3 Xrotation Yrotation Zrotation
										JOINT mixamorig:RightHandMiddle3
										{
											OFFSET -6.148193 0.000000 0.000000
											CHANNELS 3 Xrotation Yrotation Zrotation
											JOINT mixamorig:RightHandMiddle4
											{
												OFFSET -6.583389 0.000000 0.000000
												CHANNELS 3 Xrotation Yrotation Zrotation
												End Site
												{
													OFFSET 1.171692 6.395905 1.029786
												}
											}
										}
									}
								}
								JOINT mixamorig:RightHandThumb1
								{
									OFFSET -7.190521 -3.860474 5.435846
									CHANNELS 3 Xrotation Yrotation Zrotation
									JOINT mixamorig:RightHandThumb2
									{
										OFFSET -6.567429 -3.791718 3.791708
										CHANNELS 3 Xrotation Yrotation Zrotation
										JOINT mixamorig:RightHandThumb3
										{
											OFFSET -6.062469 -3.500153 3.500166
											CHANNELS 3 Xrotation Yrotation Zrotation
											JOINT mixamorig:RightHandThumb4
											{
												OFFSET -4.792618 -2.767029 2.767022
												CHANNELS 3 Xrotation Yrotation Zrotation
												End Site
												{
													OFFSET -0.100327 6.053253 1.276754
												}
											}
										}
									}
								}
								JOINT mixamorig:RightHandIndex1
								{
									OFFSET -23.048981 -0.310791 4.992554
									CHANNELS 3 Xrotation Yrotation Zrotation
									JOINT mixamorig:RightHandIndex2
									{
										OFFSET -6.227539 0.000000 0.000000
										CHANNELS 3 Xrotation Yrotation Zrotation
										JOINT mixamorig:RightHandIndex3
										{
											OFFSET -6.095047 0.000000 0.000000
											CHANNELS 3 Xrotation Yrotation Zrotation
											JOINT mixamorig:RightHandIndex4
											{
												OFFSET -5.484772 0.000000 0.000000
												CHANNELS 3 Xrotation Yrotation Zrotation
												End Site
												{
													OFFSET 1.420593 5.237305 0.797056
												}
											}
										}
									}
								}
								JOINT mixamorig:RightHandRing1
								{
									OFFSET -22.246323 0.020569 -3.963762
									CHANNELS 3 Xrotation Yrotation Zrotation
									JOINT mixamorig:RightHandRing2
									{
										OFFSET -6.322128 0.000000 0.000000
										CHANNELS 3 Xrotation Yrotation Zrotation
										JOINT mixamorig:RightHandRing3
										{
											OFFSET -5.900024 0.000000 0.000000
											CHANNELS 3 Xrotation Yrotation Zrotation
											JOINT mixamorig:RightHandRing4
											{
												OFFSET -6.518356 0.000000 0.000000
												CHANNELS 3 Xrotation Yrotation Zrotation
												End Site
												{
													OFFSET 1.636398 6.232697 0.982186
												}
											}
										}
									}
								}
								JOINT mixamorig:RightHandPinky1
								{
									OFFSET -20.411011 -0.303314 -8.561701
									CHANNELS 3 Xrotation Yrotation Zrotation
									JOINT mixamorig:RightHandPinky2
									{
										OFFSET -6.907349 0.000000 0.000000
										CHANNELS 3 Xrotation Yrotation Zrotation
										JOINT mixamorig:RightHandPinky3
										{
											OFFSET -4.623840 0.000000 0.000000
											CHANNELS 3 Xrotation Yrotation Zrotation
											JOINT mixamorig:RightHandPinky4
											{
												OFFSET -5.218353 0.000000 0.000000
												CHANNELS 3 Xrotation Yrotation Zrotation
												End Site
												{
													OFFSET 0.602097 5.118835 0.816273
												}
											}
										}
									}
								}
							}
						}
					}
				}
			}
		}
	}
	JOINT mixamorig:LeftUpLeg
	{
		OFFSET 18.168400 -13.561905 -0.039000
		CHANNELS 3 Xrotation Yrotation Zrotation
		JOINT mixamorig:LeftLeg
		{
			OFFSET 0.577358 -80.825211 -3.695000
			CHANNELS 3 Xrotation Yrotation Zrotation
			JOINT mixamorig:LeftFoot
			{
				OFFSET -0.577356 -83.370262 -6.520700
				CHANNELS 3 Xrotation Yrotation Zrotation
				JOINT mixamorig:LeftToeBase
				{
					OFFSET 0.750401 -20.798306 25.135401
					CHANNELS 3 Xrotation Yrotation Zrotation
					JOINT mixamorig:LeftToe_End
					{
						OFFSET -0.000500 0.001200 19.917799
						CHANNELS 3 Xrotation Yrotation Zrotation
						End Site
						{
							OFFSET 0.000000 19.917805 0.000000
						}
					}
				}
			}
		}
	}
	JOINT mixamorig:RightUpLeg
	{
		OFFSET -18.162500 -13.585098 -0.041000
		CHANNELS 3 Xrotation Yrotation Zrotation
		JOINT mixamorig:RightLeg
		{
			OFFSET -0.595024 -80.945297 -3.631900
			CHANNELS 3 Xrotation Yrotation Zrotation
			JOINT mixamorig:RightFoot
			{
				OFFSET 0.595024 -83.218193 -6.561200
				CHANNELS 3 Xrotation Yrotation Zrotation
				JOINT mixamorig:RightToeBase
				{
					OFFSET -0.753601 -20.807106 25.115000
					CHANNELS 3 Xrotation Yrotation Zrotation
					JOINT mixamorig:RightToe_End
					{
						OFFSET 0.000299 0.001700 19.918200
						CHANNELS 3 Xrotation Yrotation Zrotation
						End Site
						{
							OFFSET 0.000000 19.918203 0.000000
						}
					}
				}
			}
		}
	}
}
MOTION
Frames: 5
Frame Time: 0.033333
0.844429 197.815872 -0.917305 -17.421654 -53.194169 -11.870272 21.551407 10.256217 -0.190097 1.667528 0.221656 -7.499128 10.890675 -4.207198 -2.147398 0.367413 7.480953 0.837549 -6.982134 21.597278 11.882996 0.000000 0.000001 -0.000001 0.000000 0.000001 -0.000001 0.000000 0.000001 -0.000001 -37.565166 -4.847893 1.578449 -41.611237 -1.935704 -58.303936 0.000109 -71.600142 0.000104 -112.994463 2.945770 42.706598 0.405906 5.507024 -52.453169 3.387131 5.308628 -65.057463 0.282011 1.797454 -17.832383 0.000002 -0.000000 0.000004 1.567990 0.456386 2.719342 19.473189 -1.474884 7.636919 -4.536183 -9.613099 1.492975 0.000001 -0.000001 0.000000 -1.882823 2.129405 -39.817018 2.946321 5.081288 -60.191759 0.514030 2.401595 -24.158905 -0.000000 0.000000 0.000000 -0.074365 5.736810 -61.061420 4.422100 5.674478 -75.840399 0.582666 2.548974 -25.748001 -0.000002 -0.000001 0.000002 2.216807 7.072450 -64.435438 4.422621 5.674612 -75.845774 1.294131 3.673945 -38.798452 0.000000 -0.000002 -0.000000 -41.176287 -8.605644 -9.942307 -46.737017 47.991979 114.863783 0.000756 96.778904 -0.000656 -45.113294 -23.235417 -20.190661 3.413077 -7.186239 51.650246 6.296811 -4.359596 110.634687 0.248721 -1.503077 18.790257 0.000000 -0.000000 0.000001 8.377150 -4.904116 11.022010 21.620199 -18.183910 -18.379230 -0.702954 -49.821200 -32.535203 0.000000 -0.000000 0.000001 -1.101394 1.407133 15.159516 1.422352 -3.352152 45.974085 0.615851 -2.316438 29.773109 -0.000000 -0.000000 0.000002 -3.349021 -2.600428 57.010564 5.440857 -4.590908 99.698133 1.689425 -3.590678 50.382238 -0.000001 -0.000000 -0.000003 -3.996431 -3.303920 64.593843 4.058828 -4.618663 82.610510 2.315543 -4.026779 59.787221 -0.000002 0.000000 -0.000001 -20.741825 7.807961 5.571311 47.846291 9.812492 5.312215 -0.261511 9.602414 -0.330947 -1.437902 0.000007 -0.000007 -0.000000 -0.000001 -0.000001 -7.967141 -17.483532 -5.995566 25.003892 -9.945693 0.532045 -8.622983 -11.583002 -0.875226 -2.098732 -0.000008 0.000003 -0.000000 0.000000 -0.000000 
6.970922 197.590637 0.963196 -17.774066 -51.628871 -12.077094 20.655600 9.319142 0.204739 2.303658 0.124681 -7.080729 11.130789 -4.082407 -1.954397 0.710560 7.562894 1.109924 -6.465244 21.663091 12.352658 0.000000 0.000000 -0.000000 0.000000 0.000000 -0.000000 0.000000 0.000000 -0.000000 -37.571115 -4.816601 1.397253 -41.499451 -2.459406 -58.539133 0.000098 -71.322174 0.000092 -113.120814 2.836266 42.442772 0.405903 5.507023 -52.453165 3.387130 5.308625 -65.057463 0.282011 1.797454 -17.832377 0.000002 -0.000001 0.000002 5.433789 -0.513944 2.878593 19.473190 -1.474892 7.636922 -4.536187 -9.613099 1.492974 0.000003 -0.000001 -0.000001 -1.854001 2.157384 -39.766744 2.946326 5.081291 -60.191732 0.514024 2.401594 -24.158903 0.000003 0.000000 0.000001 -0.074367 5.736809 -61.061420 4.416062 5.672969 -75.779392 0.582668 2.548973 -25.748001 -0.000000 0.000001 -0.000001 2.081005 7.011632 -64.563750 4.403701 5.669836 -75.654413 1.268343 3.641697 -38.394337 -0.000001 -0.000003 0.000001 -41.212101 -8.778393 -10.210708 -46.548839 48.362855 114.409254 0.000300 97.033499 -0.000300 -45.556225 -22.932150 -20.643651 3.413076 -7.186239 51.650239 6.296811 -4.359597 110.634680 0.248720 -1.503076 18.790252 0.000001 -0.000000 -0.000000 8.377149 -4.904116 11.022012 21.620194 -18.183907 -18.379230 -0.702957 -49.821206 -32.535203 0.000002 0.000000 -0.000001 -1.098551 1.411632 15.115137 1.409930 -3.340093 45.760918 0.615852 -2.316436 29.773116 -0.000001 0.000000 -0.000001 -3.349022 -2.600428 57.010564 5.440859 -4.590908 99.698140 1.689425 -3.590677 50.382245 -0.000001 -0.000001 -0.000001 -3.996432 -3.303920 64.593843 4.058828 -4.618663 82.610510 2.315542 -4.026781 59.787214 -0.000001 0.000000 -0.000001 -19.370355 13.197726 12.223044 44.502145 9.215429 6.221476 -0.800389 8.725071 1.990184 0.885587 0.000020 -0.000015 0.000000 0.000001 -0.000001 -9.462392 -18.185874 -7.869798 25.341807 -9.352524 0.000310 -6.615539 -12.423626 0.405667 -2.237818 0.000010 0.000003 0.000000 -0.000000 -0.000000 
13.647289 197.226044 3.689270 -17.914883 -50.062046 -12.130981 19.509889 8.301713 0.720675 3.028777 0.022862 -6.637398 11.409192 -3.941764 -1.765303 1.378152 7.817745 1.740124 -5.594749 21.969546 13.660124 -0.000000 -0.000002 -0.000001 -0.000000 -0.000002 -0.000001 -0.000000 -0.000002 -0.000001 -37.576692 -4.775636 1.169309 -41.326661 -3.120945 -58.846936 0.000117 -70.809698 0.000134 -113.477678 2.692591 41.930104 0.405904 5.507024 -52.453165 3.387133 5.308628 -65.057463 0.282011 1.797454 -17.832379 0.000004 -0.000000 -0.000000 8.153160 -1.106821 3.018557 19.473184 -1.474890 7.636921 -4.536181 -9.613098 1.492975 0.000005 0.000000 -0.000002 -1.810764 2.199511 -39.691199 2.946313 5.081284 -60.191855 0.514029 2.401596 -24.158902 -0.000002 -0.000000 -0.000001 -0.074365 5.736813 -61.061420 4.406997 5.670658 -75.687669 0.582662 2.548973 -25.747998 -0.000000 0.000003 -0.000000 1.876362 6.921399 -64.756819 4.375314 5.662519 -75.366773 1.230011 3.592909 -37.786912 -0.000001 -0.000000 0.000001 -41.259814 -8.944858 -10.525611 -46.344702 48.809676 113.842294 -0.000246 97.319868 0.000332 -46.006365 -22.733957 -21.291740 3.413078 -7.186240 51.650246 6.296810 -4.359596 110.634680 0.248720 -1.503076 18.790253 0.000001 -0.000001 -0.000000 8.377154 -4.904117 11.022012 21.620195 -18.183908 -18.379230 -0.702952 -49.821200 -32.535203 0.000004 0.000000 -0.000001 -1.094240 1.418434 15.048432 1.391291 -3.321918 45.440501 0.615854 -2.316436 29.773116 -0.000001 0.000000 0.000000 -3.349019 -2.600429 57.010564 5.440859 -4.590909 99.698133 1.689424 -3.590679 50.382238 -0.000001 -0.000000 0.000001 -3.996430 -3.303918 64.593843 4.058828 -4.618663 82.610510 2.315542 -4.026779 59.787221 -0.000002 -0.000000 -0.000003 -18.741037 19.328431 18.097986 38.030176 9.549304 7.119636 1.012285 7.867837 3.902412 1.959352 -0.000011 0.000020 -0.000000 -0.000001 0.000000 -11.051114 -19.303392 -10.166302 25.273520 -8.052063 -0.697529 -4.188726 -13.356608 2.010646 -2.359663 0.000000 0.000003 0.000000 -0.000000 0.000000 
20.930351 196.520035 7.415564 -17.673379 -48.592899 -11.819629 18.101120 7.215406 1.298834 3.823623 -0.078865 -6.166594 11.711399 -3.783036 -1.576053 2.165862 8.159096 2.519265 -4.590095 22.410657 15.364803 0.000001 -0.000001 0.000001 0.000001 -0.000001 0.000001 0.000001 -0.000001 0.000001 -37.582190 -4.718791 0.913221 -41.079715 -3.872312 -59.232002 0.000041 -70.043125 0.000038 -114.131396 2.502588 41.072414 0.405905 5.507024 -52.453162 3.387134 5.308625 -65.057463 0.282014 1.797454 -17.832381 0.000004 0.000000 0.000001 9.550349 -1.189739 3.107252 19.473190 -1.474884 7.636921 -4.536180 -9.613094 1.492973 0.000002 -0.000001 0.000000 -1.748292 2.260828 -39.581680 2.946340 5.081303 -60.192108 0.514024 2.401595 -24.158903 -0.000002 -0.000002 -0.000001 -0.074365 5.736812 -61.061413 4.393856 5.667320 -75.554631 0.582658 2.548968 -25.748000 -0.000000 -0.000003 0.000003 1.578504 6.793097 -65.037150 4.334202 5.651687 -74.949674 1.175380 3.521438 -36.906295 0.000000 0.000000 0.000000 -41.323368 -9.077539 -10.887920 -46.173271 49.347311 113.159405 0.000544 97.600022 -0.000593 -46.412628 -22.658592 -22.119315 3.413077 -7.186239 51.650242 6.296812 -4.359597 110.634687 0.248721 -1.503077 18.790257 0.000002 -0.000000 -0.000000 8.377152 -4.904116 11.022009 21.620195 -18.183907 -18.379230 -0.702954 -49.821200 -32.535200 0.000001 -0.000003 -0.000001 -1.087973 1.428267 14.951697 1.364482 -3.295346 44.975901 0.615850 -2.316437 29.773112 -0.000001 0.000000 0.000000 -3.349021 -2.600429 57.010564 5.440859 -4.590910 99.698133 1.689425 -3.590678 50.382238 0.000000 -0.000001 -0.000000 -3.996431 -3.303920 64.593843 4.058827 -4.618663 82.610516 2.315542 -4.026779 59.787214 0.000000 0.000000 0.000000 -19.038705 25.909752 22.610609 30.410885 9.645439 7.645595 4.551860 6.991972 7.458543 3.558389 0.000002 -0.000007 -0.000000 0.000000 0.000000 -13.166679 -20.664123 -13.028687 25.133904 -6.102824 -1.707029 -1.416290 -14.328873 4.139809 -2.411795 0.000012 0.000001 -0.000000 -0.000000 -0.000000 
28.711180 195.343597 11.997993 -16.989298 -47.320435 -10.982479 16.535538 6.093313 1.821388 4.644690 -0.172711 -5.659825 12.008150 -3.603850 -1.371721 2.881401 8.503165 3.238305 -3.668761 22.876472 17.049481 -0.000000 -0.000001 -0.000001 -0.000000 -0.000001 -0.000001 -0.000000 -0.000001 -0.000001 -37.587224 -4.647225 0.677792 -40.793216 -4.605707 -59.684946 -0.000032 -69.052243 -0.000031 -115.088933 2.295066 39.817496 0.405904 5.507019 -52.453165 3.387134 5.308625 -65.057463 0.282015 1.797454 -17.832381 0.000001 -0.000001 0.000000 9.778602 -0.775882 3.139867 19.473185 -1.474882 7.636921 -4.536183 -9.613098 1.492976 0.000001 0.000001 0.000001 -1.663271 2.344983 -39.431973 2.946304 5.081291 -60.191773 0.514027 2.401594 -24.158900 0.000002 0.000000 0.000001 -0.074368 5.736804 -61.061427 4.375920 5.662686 -75.372736 0.582668 2.548972 -25.748000 -0.000003 -0.000002 0.000002 1.169141 6.622541 -65.421205 4.278093 5.636377 -74.379353 1.102474 3.422394 -35.702314 -0.000001 -0.000001 0.000000 -41.400983 -9.146362 -11.272430 -46.117109 49.975760 112.405755 0.000937 97.811266 -0.000942 -46.688339 -22.683886 -23.049054 3.413077 -7.186240 51.650242 6.296809 -4.359595 110.634687 0.248722 -1.503077 18.790257 0.000001 -0.000001 0.000001 8.377152 -4.904116 11.022013 21.620199 -18.183907 -18.379230 -0.702953 -49.821206 -32.535200 0.000001 -0.000001 -0.000000 -1.079371 1.441680 14.819419 1.328165 -3.258645 44.340659 0.615851 -2.316437 29.773112 0.000001 -0.000001 -0.000001 -3.349022 -2.600429 57.010561 5.440861 -4.590907 99.698133 1.689427 -3.590678 50.382242 -0.000000 0.000000 0.000000 -3.996431 -3.303920 64.593837 4.058825 -4.618663 82.610516 2.315545 -4.026779 59.787221 0.000002 0.000000 -0.000000 -20.588205 32.042729 25.748838 25.929975 9.573167 7.287544 7.707656 4.552955 9.057778 0.444952 0.011640 -1.035515 -0.000000 0.000000 -0.000001 -15.986015 -21.882780 -16.475113 25.011786 -3.951027 -3.056221 1.675544 -15.062483 6.841010 -2.336665 -0.000026 -0.000002 0.000000 0.000000 0.000000 
